<?xml version="1.0" encoding="utf-8"?>
<!-- Generator: Adobe Illustrator 25.4.1, SVG Export Plug-In . SVG Version: 6.00 Build 0)  -->
<svg version="1.1" id="Layer_1" xmlns="http://www.w3.org/2000/svg" xmlns:xlink="http://www.w3.org/1999/xlink" x="0px" y="0px"
	 viewBox="0 0 448 322" style="enable-background:new 0 0 448 322;" xml:space="preserve">
<g>
	<path d="M392,0H56C41.1,0,26.9,5.9,16.4,16.4C5.9,26.9,0,41.1,0,56v210c0,14.9,5.9,29.1,16.4,39.6C26.9,316.1,41.1,322,56,322h336
		c14.9,0,29.1-5.9,39.6-16.4c10.5-10.5,16.4-24.7,16.4-39.6V56c0-14.9-5.9-29.1-16.4-39.6C421.1,5.9,406.9,0,392,0z M420,266
		c0,7.4-2.9,14.5-8.2,19.8c-5.3,5.2-12.4,8.2-19.8,8.2H56c-7.4,0-14.5-2.9-19.8-8.2c-5.2-5.3-8.2-12.4-8.2-19.8V56
		c0-7.4,2.9-14.5,8.2-19.8C41.5,30.9,48.6,28,56,28h336c7.4,0,14.5,2.9,19.8,8.2c5.2,5.3,8.2,12.4,8.2,19.8V266z"/>
	<path d="M369.1,73.2L224,191.9L78.8,73.2c-6-4.9-14.8-4-19.7,2c-4.9,6-4,14.8,2,19.7l154,126c5.2,4.2,12.6,4.2,17.8,0l154-126
		c6-4.9,6.9-13.7,2-19.7S375.1,68.3,369.1,73.2L369.1,73.2z"/>
</g>
</svg>
