<?xml version="1.0" encoding="utf-8"?>
<!-- Generator: Adobe Illustrator 25.4.1, SVG Export Plug-In . SVG Version: 6.00 Build 0)  -->
<svg version="1.1" id="Layer_1" xmlns="http://www.w3.org/2000/svg" xmlns:xlink="http://www.w3.org/1999/xlink" x="0px" y="0px"
	 viewBox="0 0 450.5 453.2" style="enable-background:new 0 0 450.5 453.2;" xml:space="preserve">
<g>
	<path d="M408.3,356.1c23.9-32.8,38.5-71.4,42.2-111.8c3.7-40.4-3.7-81-21.3-117.6c-17.6-36.6-44.8-67.6-78.7-89.9
		c-33.9-22.3-73.2-35-113.7-36.7c-40.5-1.7-80.8,7.6-116.4,27c-35.6,19.4-65.3,48.1-86,83c-0.3,0.4-0.7,0.6-1,1
		c-0.3,0.7-0.6,1.4-0.8,2.1C10.1,150.1-1.2,192.6,0.1,235.7c1.2,43.1,15,84.9,39.6,120.4v0.5c0,0.2,0.6,0.5,0.8,0.8
		c27.4,39.4,66.9,68.9,112.4,84.2s94.8,15.4,140.4,0.5c45.6-14.9,85.3-44.2,113-83.4c0.6-0.6,1.2-1.3,1.7-2
		C407.9,356.7,408.2,356.3,408.3,356.1L408.3,356.1z M391.5,330.2c-27.2-15.7-56.6-27.5-87.1-35.1c2.4-21.9,3.6-43.9,3.6-65.9
		c0-17.5-0.8-35.1-2.2-52.2c32.4-8.1,63.3-21,91.8-38.3c15.6,29.7,23.3,62.9,22.2,96.5c-1,33.5-10.7,66.2-28.2,94.9L391.5,330.2z
		 M224,425.2c-16.8,0-38.5-40.3-49.3-107.9c32.6-5.5,66-5.5,98.6,0C262.4,384.9,240.8,425.2,224,425.2z M224,285.2
		c-17.7,0-35.5,1.5-53,4.3c-2-20-3-40.2-3-60.3c0-16.4,0.7-31.8,1.8-46.5c17.9,2.9,36,4.4,54.2,4.5c18.2,0,36.3-1.5,54.2-4.5
		c1.1,14.7,1.8,30.1,1.8,46.5c0,20.1-1,40.3-3,60.3C259.4,286.7,241.7,285.3,224,285.2L224,285.2z M224,33.2
		c17.6,0,41.4,45.7,51.3,121.6c-16.9,2.9-34.1,4.4-51.3,4.4c-17.2-0.1-34.4-1.5-51.3-4.4C182.6,78.9,206.3,33.2,224,33.2z
		 M382.8,114.9c-24.9,15.1-51.9,26.5-80.1,33.9c-5.9-44.2-16.8-83.5-32.5-109.9C315.6,50.1,355.5,77,382.8,114.9L382.8,114.9z
		 M177.6,38.8c-15.7,26.3-26.6,65.6-32.5,109.8v0c-28.2-7.4-55.1-18.9-80.1-33.9C92.3,76.8,132.2,49.9,177.6,38.8L177.6,38.8z
		 M50.4,138.6c28.5,17.3,59.5,30.2,91.8,38.3c-1.4,17.1-2.2,34.7-2.2,52.2c0,22,1.2,44.1,3.5,66c-30.5,7.4-59.9,19.2-87.1,34.8
		c-17.4-28.7-27.1-61.4-28.2-94.9C27.1,201.6,34.7,168.3,50.4,138.6L50.4,138.6z M72.4,353.2L72.4,353.2
		c23.5-13.3,48.7-23.5,74.8-30.2c6.2,38.7,16.4,72.8,30.4,96.4C136.3,409.4,99.3,386.1,72.4,353.2L72.4,353.2z M270.3,419.6
		c14.1-23.6,24.2-57.7,30.4-96.4h0c26.2,6.7,51.3,16.9,74.8,30.2C348.6,386.3,311.7,409.5,270.3,419.6L270.3,419.6z"/>
</g>
</svg>
